<?xml version="1.0" encoding="UTF-8"?>
<svg id="Calque_1" data-name="Calque 1" xmlns="http://www.w3.org/2000/svg" viewBox="0 0 735.67 331.78">
  <defs>
    <style>
      .cls-1 {
        fill: #456481;
      }

      .cls-2 {
        fill: #d70022;
      }

      .cls-3 {
        fill: #39556f;
      }

      .cls-4 {
        fill: #262731;
      }

      .cls-5 {
        fill: #1a1b26;
      }

      .cls-6 {
        fill: #fff3f3;
      }
    </style>
  </defs>
  <g>
    <path class="cls-5" d="M30.24,119.05l-.7,37.74-29.55-.55L2.1,42.34l47.14.87c9.9.18,20.12,2.25,28.67,10.78,8.72,8.7,10.25,18.3,10.08,27.86-.17,9.05-1.56,19.62-10.6,28.16-9.04,8.55-19.65,9.55-28.53,9.38l-18.62-.34ZM30.68,95.14l9.9.18c3.07.06,8.89-.18,12.53-3.36,3.64-3.01,3.9-7.62,3.95-10.35.06-3.07-.21-7.18-3.23-10.31-3.35-3.65-8.81-4.26-12.56-4.33l-10.08-.19-.52,28.35Z"/>
    <path class="cls-5" d="M200.93,145.61c-11.82,10.89-28.32,16.39-45.23,16.08-16.91-.31-33.19-6.42-44.6-17.74-11.91-11.84-17.42-27.83-17.15-42.86.28-15.2,6.38-31.15,18.72-42.36,11.82-10.89,28.32-16.39,45.23-16.08,16.91.31,33.2,6.42,44.6,17.74,11.91,11.67,17.42,27.83,17.14,43.03-.28,15.03-6.38,30.8-18.72,42.19ZM134.15,79.97c-6.26,5.86-9.32,14.18-9.47,22.21-.19,10.08,4.47,17.17,8.66,21.34,5.37,5.39,12.98,9.29,22.89,9.48,10.08.19,17.66-3.26,23.05-8.46,5.39-5.2,9.46-12.98,9.63-21.69s-3.62-16.81-8.82-22.03c-6.21-6.09-14.86-9.33-22.72-9.47-8.2-.15-16.96,2.59-23.22,8.63Z"/>
    <path class="cls-5" d="M263.9,94.15l37.07-46.3,36.55.67-46.25,53.13,48.25,60.85-38.25-.71-37.69-50.07-.91,49.36-29.55-.55,2.1-113.91,29.55.55-.87,46.96Z"/>
    <path class="cls-5" d="M414.77,75.07l-35.18-.65-.35,18.96,33.3.61-.46,25.1-33.3-.61-.36,19.64,35.18.65-.46,25.1-64.73-1.19,2.1-113.91,64.73,1.19-.46,25.1Z"/>
    <path class="cls-5" d="M475.86,51.08c8.54.16,19.44,1.73,27.65,10.59,6.37,6.78,9.43,16.75,9.26,25.8-.18,9.73-3.75,18.21-9.49,23.57-4.52,4.19-10.54,6.64-15.86,7.57l34.83,47.28-36.72-.68-27.54-44.24-.81,43.72-29.55-.55,2.1-113.91,46.11.85ZM458.35,101.84l5.64.1c4.44.08,10.78-1,14.43-4.35,2.26-2.18,3.87-5.91,3.93-9.49.06-3.42-1.23-7.2-3.75-9.64-2.68-2.78-7.6-4.58-14.09-4.7l-5.64-.1-.52,28.18Z"/>
  </g>
  <g>
    <path class="cls-6" d="M634.48,73.67c9.54,6.71,23.23,20.43,32.29,28.77,1.66,1.53,3.35,3.05,5.01,4.58.04.04-.65.81-.39,1.05,15.82,14.55,31.77,28.97,47.59,43.52,4.62,4.25,19.48,13.18,16.22,20.16l-144.21,159.13c-3.62,1.87-6.01.56-9.06-1.6l-99.56-91.25c-4.53-6.71,7.41-15.45,11.5-20.36.74-.89,1.19-2.48,1.93-3.35.96-1.13,1.88-2.34,2.84-3.46.21-.24.68-.66,1.05-1.09,18.47-21.34,38.69-42.66,57.81-63.58,13.56-14.84,27.23-29.66,40.86-44.45,4.05-4.39,26.23-29.52,29.31-30.28s4.65.7,6.8,2.21Z"/>
    <path class="cls-5" d="M634.18,172.03l.71.62c-1.4,12.73,5.33,36.86.64,48.36-7.84,19.19-35.09,18.03-38.83-3.01-3.77,5-5.18,11.43-5.23,17.59l-15.35-13.93c6.11-1.1,12.23-2.56,17.05-6.75-16.91-1.73-23.91-19.06-13.92-32.64,10.03-13.64,40.14-7.66,54.94-10.23Z"/>
    <path class="cls-5" d="M621.95,104.69l.71.62c-.48,5.67,3.4,14.86-2.88,18.3-2.95,1.61-7.52.08-8.21-3.45l-.82-.05-1.34,6.02-6.61-5.5c1.11-.45,6.61-1.29,6.58-2.58-5.06-1.04-6.69-6.47-3.35-10.42,2.67-3.16,12.11-1.8,15.92-2.95Z"/>
    <path class="cls-5" d="M608.12,276.39l6.03,5.38c.03.36-6.02.95-6.08,2.45,5.04,1.37,6.98,6.39,3.35,10.42-2.33,2.59-12.14,1.43-15.55,2.31-.42-4.53-2.8-12.94.07-16.74,2.61-3.46,9.18-2.22,9.77,2.22l.82.05,1.59-6.09Z"/>
    <path class="cls-1" d="M666.64,101.94l.32.18-.18.32c-9.06-8.34-22.76-22.06-32.29-28.77l.18-.32c10.23,8.88,20.82,17.62,30.13,26.25.41.38,1.38,1.86,1.84,2.33Z"/>
  </g>
  <path class="cls-3" d="M556.65,144c.22.5-.08,1.88.86,2.19-19.12,20.92-39.34,42.24-57.81,63.58-2.45-1.44-5.13-2.44-7.71-3.58l4.15.9,39.53-41.39c6.87-9.37,12.26-19.75,17.35-30.16.93,2.93,2.4,5.66,3.63,8.46Z"/>
  <path class="cls-3" d="M627.69,71.46c-3.08.76-25.26,25.89-29.31,30.28-1.82-.48-4.43-.51-6.26-.2,4.32-5.4,12.81-18.64,18.97-21.16,2.32-.95,4.79-.2,5.8-.49,2.38-.68,5.74-7.28,10-8.9.38-.15,1.51-.63.8.46Z"/>
  <polygon class="cls-3" points="666.96 102.12 666.64 101.94 667.72 100.44 666.96 102.12"/>
  <g>
    <path class="cls-2" d="M598.37,101.74c-13.63,14.79-27.3,29.61-40.86,44.45-.94-.32-.64-1.7-.86-2.19l34.96-42.32c.06-.01.2-.09.5-.14,1.83-.31,4.44-.28,6.26.2Z"/>
    <path class="cls-2" d="M556.65,144c-1.23-2.8-2.7-5.53-3.63-8.46-.53-1.67-.75-3.63-1.17-5.35.57.15,1.2-1.19,1.33-1.57,4.32-12.95,7.26-24.12,12.8-37.02.05-.11.14-.21.18-.32,8.75-.18,16.35,4.13,18.71,12.89,2.3-.86,4.29-2,6.74-2.49l-34.96,42.32Z"/>
    <path class="cls-2" d="M551.85,130.19c-3.69-14.95-4.99-34.43,14.13-38.59-5.54,12.9-8.48,24.07-12.8,37.02-.13.38-.76,1.72-1.33,1.57Z"/>
  </g>
  <path class="cls-4" d="M690.08,56.39c-2.64-2.89-21.66-10.13-26.65-12.36h0c-21.2-9.44-42.55-18.61-63.85-27.81-2.08-1.64-32.93-15.29-36-16.04-2.53-.61-5.22.42-7.29,1.97-26.29,61.26-55.3,121.52-80.71,183.13h0c-2.04,4.94-7.82,14.08-3.23,18.53,4.11,3.98,17.92,7.46,23.46,10.52.96-1.13,1.88-2.34,2.84-3.46-4.8-2.86-18.75-6.47-21.64-10.75-2.39-3.54,3.32-13.92,5.01-17.93h0c24.59-58.63,51.73-116.28,77.08-174.6,1.11-.73,2.44-1.73,3.82-1.84,3.85-.31,31.34,12.91,37.19,15.45h0c18.93,8.21,38.2,16.1,56.94,24.69.83.38,1.75.85,2.21,1.7h0c-.6,2.12-2.53,0-3.61-.38-18.58-6.63-38.01-16.79-56.28-24.73-9.28-4.04-25.24-12.53-34.09-14.94-1.87-.51-3.55-.02-5.09,1.1l-82.42,188.3c-.13,4.47,10.51,7.6,14.22,9.24l4.15.9,39.53-41.39c6.87-9.37,12.26-19.75,17.35-30.16-.53-1.67-.75-3.63-1.17-5.35-3.69-14.95-4.99-34.43,14.13-38.59.05-.11.14-.21.18-.32,8.75-.18,16.35,4.13,18.71,12.89,2.3-.86,4.29-2,6.74-2.49.06-.01.2-.09.5-.14,4.32-5.4,12.81-18.64,18.97-21.16,2.32-.95,4.79-.2,5.8-.49,2.38-.68,5.74-7.28,10-8.9.38-.15,1.51-.63.8.46,2.98-.73,4.65.7,6.8,2.21l.18-.32c10.23,8.88,31.51,28.11,31.97,28.59l.32.18-.18.32c1.66,1.53,3.35,3.05,5.01,4.58l19.07-42.75c.84-2.5,1.17-5.74-.78-7.88ZM657.35,44.99c.02-.11,1.15-1.55,1.5-1.95-.36.4-1.48,1.84-1.5,1.95-.22,1.13,1.75,1.05,1.95,2.07-.2-1.02-2.17-.95-1.95-2.07Z"/>
  <path class="cls-2" d="M567.8,40.83c14.32,4.91-5.22,21.47-14.17,19.46-4.67-4.94-8.09-26.48,3.54-23.87,4.4.99,4.81,4.9,5.15,5.08.24.14,3.9-1.21,5.48-.67Z"/>
  <g>
    <path class="cls-2" d="M83.69,268.86c-3.15-4.95-5.34-10.39-6.56-16.32-1.22-5.92-1.92-11.95-2.09-18.08-.17-6.13,0-12.28.5-18.45.5-6.17.85-12.1,1.03-17.8l-.07-3.46c-1.37.56-2.7,1.07-4.01,1.51-1.3.44-2.69.64-4.16.59-2.21-.07-4.2-1.05-5.98-2.92-1.78-1.88-2.64-3.84-2.57-5.91.16-4.97,1.8-9.37,4.94-13.22,3.13-3.84,7.17-7.23,12.11-10.16,4.94-2.93,10.45-5.42,16.53-7.47,6.08-2.05,12.15-3.7,18.2-4.96,6.05-1.26,11.82-2.13,17.3-2.63,5.48-.49,9.99-.68,13.55-.56,4.17.13,8.73.59,13.67,1.35,4.95.77,9.53,2.1,13.77,3.99,4.23,1.9,7.8,4.5,10.7,7.81,2.9,3.31,4.26,7.63,4.09,12.96-.15,4.61-1.33,8.75-3.55,12.44-2.22,3.69-4.95,7.06-8.2,10.11-3.24,3.05-6.73,5.85-10.46,8.4-3.72,2.55-7.17,5.05-10.33,7.49,3.16.95,6.38,1.97,9.66,3.04,3.28,1.08,6.24,2.51,8.88,4.29,2.64,1.79,4.78,4.04,6.41,6.76,1.63,2.72,2.38,6.14,2.25,10.26-.16,5.09-1.88,9.86-5.16,14.3s-7.46,8.56-12.55,12.33c-5.09,3.78-10.82,7.14-17.17,10.09-6.35,2.95-12.69,5.44-19.02,7.48-6.33,2.04-12.36,3.58-18.1,4.6-5.74,1.03-10.57,1.48-14.5,1.35-1.72-.06-3.8-.19-6.25-.38-2.45-.2-4.8-.64-7.05-1.32-2.25-.68-4.15-1.68-5.7-3-1.55-1.32-2.29-3.2-2.21-5.62.06-1.82.47-3.26,1.24-4.33.77-1.07,1.72-1.91,2.84-2.55,1.12-.63,2.4-1.07,3.82-1.33,1.42-.26,2.81-.48,4.16-.68ZM103.67,214.55c1.61-.68,3.95-1.69,7-3.05,3.05-1.36,6.38-2.98,10.01-4.86,3.62-1.89,7.34-3.95,11.15-6.19,3.81-2.24,7.29-4.5,10.43-6.76,3.14-2.26,5.73-4.46,7.76-6.57,2.03-2.12,3.08-4.09,3.14-5.9.09-2.66-.87-4.55-2.86-5.64-1.99-1.09-4.36-1.78-7.11-2.05-2.75-.27-5.55-.24-8.38.09-2.84.33-4.99.54-6.46.61-5.42.55-9.41,1.7-11.98,3.43-2.57,1.74-4.53,4.22-5.86,7.45-1.33,3.23-2.38,7.26-3.15,12.09-.77,4.83-2,10.61-3.69,17.35ZM106.88,263.24c3.45-.37,7.78-1.54,13-3.49,5.22-1.95,10.08-4.25,14.58-6.9,5.75-3.21,9.49-6.06,11.23-8.55,1.74-2.49,2.14-4.51,1.21-6.06-.93-1.55-2.86-2.61-5.79-3.19-2.93-.58-6.24-.57-9.94.04-4.81.82-9.57,1.87-14.28,3.18-4.71,1.3-9.42,2.79-14.13,4.46.13,3.52.35,7.02.67,10.49.32,3.47,1.47,6.81,3.45,10.03Z"/>
    <path class="cls-2" d="M236.83,246.69c-1.52,1.41-3.26,2.99-5.22,4.74-1.96,1.76-4.01,3.36-6.14,4.81-2.14,1.45-4.35,2.65-6.65,3.61-2.3.96-4.62,1.4-6.95,1.32-4.41-.14-7.94-1.35-10.56-3.62-2.63-2.27-4.69-5.06-6.17-8.39-1.49-3.32-2.45-6.9-2.87-10.74-.43-3.84-.59-7.39-.48-10.66.07-2.18.28-5.02.64-8.53.36-3.51.91-7.25,1.65-11.23.74-3.98,1.73-7.95,2.96-11.91,1.23-3.96,2.7-7.52,4.39-10.69,1.7-3.16,3.68-5.73,5.96-7.72,2.27-1.99,4.88-2.94,7.82-2.84,3.68.12,6.86,1.25,9.55,3.4,2.69,2.15,3.98,5.16,3.85,9.04-.17,5.33-1.2,10.52-3.08,15.55-1.88,5.03-3.76,10.07-5.64,15.1-2.7,7.68-4.15,13.42-4.33,17.24-.19,3.82.48,5.84,2.01,6.07,1.53.23,3.69-1.31,6.5-4.61,2.81-3.3,5.91-8.3,9.32-14.98,1.97-3.94,3.84-7.91,5.63-11.92,1.79-4.01,3.56-7.62,5.32-10.84,1.76-3.22,3.59-5.86,5.5-7.92,1.91-2.06,3.96-3.06,6.17-2.99s4.3.9,6.27,2.48c1.97,1.58,2.92,3.58,2.84,6.01-.16,4.85-.68,9.62-1.57,14.33-.89,4.7-1.75,9.41-2.57,14.11-.83,4.7-1.47,9.42-1.93,14.13-.46,4.72-.4,9.57.17,14.56.41,2.56,1,4.25,1.77,5.06.77.82,1.55,1.48,2.33,1.99.78.51,1.43,1.23,1.96,2.16.52.93.74,2.78.65,5.57-.11,3.39-1.44,5.72-4,6.97-2.56,1.25-5.42,1.71-8.6,1.36-4.04-.37-7.22-1.6-9.55-3.67-2.33-2.08-4.03-4.56-5.1-7.44-1.07-2.88-1.71-6-1.91-9.34-.2-3.34-.19-6.53.03-9.55Z"/>
    <path class="cls-2" d="M321.16,183.36c.57-2.65,1.46-6.2,2.65-10.65,1.19-4.45,2.77-8.83,4.75-13.13,1.98-4.3,4.4-8.05,7.27-11.23,2.86-3.18,6.14-4.9,9.83-5.14,2.33-.04,4.25.29,5.77,1,1.51.72,2.64,1.66,3.4,2.84.76,1.18,1.21,2.56,1.34,4.14.13,1.58,0,3.16-.43,4.72-.85,3.37-1.96,7.43-3.34,12.18-1.38,4.75-2.78,9.95-4.19,15.61-1.41,5.66-2.83,11.56-4.25,17.7-1.43,6.14-2.63,12.23-3.63,18.26-.99,6.04-1.7,11.84-2.13,17.4-.43,5.57-.4,10.54.07,14.92.39,3.17,1.02,5.55,1.89,7.16.87,1.61,1.78,2.85,2.73,3.73.95.88,1.81,1.7,2.59,2.45.77.75,1.2,1.86,1.27,3.32.18,1.95-.52,3.65-2.1,5.12-1.58,1.47-3.48,2.28-5.69,2.45-3.07.15-5.7-.39-7.86-1.62-2.17-1.22-4.05-2.83-5.64-4.82-1.59-1.99-2.93-4.16-4.02-6.5-1.09-2.34-2.1-4.49-3.01-6.47-2.53,2.1-4.92,4.03-7.18,5.77-2.26,1.75-5.31,2.74-9.12,2.98-4.55.34-8.45-.64-11.69-2.92-3.24-2.29-5.91-5.16-8.01-8.63-2.1-3.46-3.67-7.18-4.7-11.16-1.04-3.97-1.69-7.54-1.96-10.71-.46-4.75-.2-9.95.78-15.62.98-5.67,2.78-11.01,5.4-16.02,2.61-5.01,6.13-9.29,10.54-12.85,4.41-3.56,9.81-5.54,16.21-5.94,2.09-.17,4.02-.08,5.79.28,1.77.36,3.68.82,5.75,1.37l.92.03ZM314.08,202.97c-3.2.26-5.77,1.88-7.7,4.85-1.94,2.97-3.43,6.38-4.47,10.23-1.04,3.85-1.75,7.71-2.12,11.58-.37,3.87-.47,6.78-.28,8.73.1.73.28,1.68.55,2.84.27,1.16.63,2.27,1.09,3.31.46,1.05,1.07,1.95,1.85,2.7.77.75,1.71,1.09,2.82,1,1.59-.07,3.19-1.14,4.8-3.21,1.6-2.07,3.07-4.69,4.4-7.87,1.33-3.17,2.42-6.62,3.28-10.36.86-3.73,1.34-7.26,1.45-10.6.11-3.33-.26-6.22-1.1-8.68-.84-2.45-2.36-3.96-4.55-4.51Z"/>
    <path class="cls-2" d="M397.85,185.84c.57-2.65,1.46-6.2,2.65-10.65,1.18-4.45,2.77-8.83,4.75-13.13,1.98-4.3,4.4-8.05,7.27-11.23s6.14-4.9,9.83-5.14c2.33-.04,4.25.29,5.77,1,1.51.72,2.64,1.66,3.4,2.84.76,1.18,1.21,2.56,1.34,4.14.13,1.58,0,3.16-.43,4.72-.85,3.37-1.96,7.43-3.34,12.18-1.38,4.75-2.78,9.95-4.19,15.61-1.41,5.66-2.83,11.56-4.25,17.7-1.43,6.14-2.63,12.23-3.63,18.26-.99,6.04-1.7,11.84-2.13,17.4-.43,5.57-.4,10.54.07,14.92.39,3.17,1.02,5.55,1.88,7.16.87,1.61,1.78,2.85,2.73,3.73.95.88,1.81,1.7,2.59,2.45.77.75,1.2,1.86,1.27,3.32.18,1.95-.52,3.65-2.1,5.12-1.58,1.47-3.48,2.28-5.69,2.45-3.07.15-5.7-.39-7.86-1.62-2.17-1.22-4.05-2.83-5.64-4.82-1.59-1.99-2.93-4.16-4.02-6.5-1.09-2.34-2.1-4.49-3.01-6.47-2.53,2.1-4.92,4.03-7.18,5.77-2.27,1.75-5.31,2.74-9.12,2.98-4.55.34-8.45-.64-11.69-2.92-3.24-2.29-5.91-5.16-8.01-8.63-2.1-3.46-3.67-7.18-4.7-11.16-1.04-3.97-1.69-7.54-1.96-10.71-.46-4.75-.2-9.95.78-15.62.98-5.67,2.78-11.01,5.4-16.02,2.61-5.01,6.13-9.29,10.54-12.85,4.41-3.56,9.81-5.54,16.21-5.94,2.09-.17,4.02-.08,5.79.28,1.77.36,3.68.82,5.76,1.37l.92.03ZM390.77,205.44c-3.2.26-5.77,1.88-7.71,4.85-1.94,2.97-3.43,6.38-4.47,10.23-1.04,3.85-1.75,7.71-2.12,11.58-.37,3.87-.47,6.78-.28,8.73.1.73.28,1.68.55,2.84.27,1.16.63,2.27,1.09,3.31.46,1.05,1.07,1.95,1.85,2.7.77.75,1.71,1.09,2.82,1,1.59-.07,3.2-1.14,4.8-3.21,1.6-2.07,3.07-4.69,4.4-7.87,1.33-3.17,2.42-6.62,3.28-10.36.86-3.73,1.34-7.26,1.45-10.6.11-3.33-.26-6.22-1.1-8.68-.84-2.45-2.36-3.96-4.55-4.51Z"/>
    <path class="cls-2" d="M490.32,229.4c-1.94,2.97-4.28,6.26-7.04,9.87-2.76,3.61-5.81,6.97-9.16,10.08-3.35,3.11-6.93,5.69-10.74,7.75-3.81,2.06-7.74,3.03-11.78,2.9-4.05-.13-7.52-1.03-10.41-2.7-2.89-1.67-5.22-3.84-6.97-6.5-1.75-2.66-3.04-5.65-3.85-8.95s-1.17-6.65-1.06-10.04c.08-2.42.36-5.38.84-8.89.48-3.5,1.21-7.15,2.19-10.94.98-3.79,2.18-7.6,3.59-11.44,1.41-3.84,3.09-7.24,5.02-10.21,1.94-2.97,4.16-5.38,6.68-7.25,2.51-1.86,5.3-2.74,8.37-2.64,3.92.13,7.08,1.23,9.47,3.31,2.39,2.08,3.52,5,3.4,8.75s-.92,7.68-2.39,11.39c-1.47,3.71-2.94,7.37-4.4,10.96-1.48,3.84-2.25,6.93-2.32,9.3-.08,2.36.37,3.83,1.33,4.41.96.58,2.39.2,4.27-1.14,1.88-1.33,4.05-3.78,6.5-7.34,2.71-4.16,5.22-8.87,7.54-14.13,2.32-5.26,4.62-10.19,6.92-14.79,2.29-4.59,4.63-8.46,7-11.6,2.37-3.14,4.96-4.66,7.79-4.57,3.31.11,5.78,1.61,7.4,4.52,1.62,2.9,2.77,6.34,3.44,10.3.67,3.97.97,7.95.9,11.95-.07,4-.14,7.09-.21,9.27-.18,5.7-.68,12.41-1.48,20.15-.8,7.74-2.1,15.74-3.9,23.99-1.8,8.25-4.12,16.43-6.96,24.52-2.84,8.1-6.45,15.29-10.82,21.58-4.38,6.29-9.57,11.31-15.58,15.06-6.01,3.75-13,5.49-20.97,5.24-4.41-.14-9.13-1.3-14.16-3.46-5.02-2.16-9.66-4.98-13.9-8.46-4.24-3.48-7.74-7.44-10.48-11.89-2.74-4.46-4.04-9.05-3.88-13.77.08-2.54.66-5.07,1.72-7.59,1.07-2.51,2.46-4.77,4.18-6.78,1.72-2.01,3.77-3.61,6.14-4.81,2.37-1.2,4.9-1.75,7.6-1.67s4.79.85,6.65,2.31c1.86,1.46,3.55,3.21,5.08,5.26,1.53,2.05,2.99,4.31,4.38,6.78,1.39,2.47,2.85,4.73,4.38,6.78,1.53,2.05,3.25,3.81,5.17,5.26,1.91,1.46,4.22,2.23,6.92,2.32,3.06.1,5.8-1.06,8.21-3.47,2.41-2.41,4.57-5.55,6.47-9.44,1.9-3.88,3.58-8.22,5.02-13.03,1.44-4.8,2.7-9.56,3.77-14.25,1.07-4.7,1.92-9.04,2.54-13.02.62-3.98,1.15-7.06,1.59-9.23Z"/>
  </g>
</svg>