<?xml version="1.0" encoding="UTF-8"?>
<svg id="Calque_1" data-name="Calque 1" xmlns="http://www.w3.org/2000/svg" viewBox="0 0 420.46 462.97">
  <defs>
    <style>
      .cls-1 {
        fill: #d70022;
      }

      .cls-2 {
        fill: #727f90;
      }

      .cls-3 {
        fill: #262731;
      }

      .cls-4 {
        fill: #1a1b26;
      }

      .cls-5 {
        fill: #fff3f3;
      }
    </style>
  </defs>
  <path class="cls-2" d="M107.37,212.56c-10.08,45.23-21.51,91.96-29.98,137.35-1.69,1-3.64.4-5.45.55l29.98-138.98c1.84.41,3.69.45,5.45,1.09Z"/>
  <path class="cls-2" d="M127.54,122.09c-2.23-1.47-4.51-4.53-6.54-6,.83-.13,1.47-1.82,1.64-2.45,2.2-8.35,5.73-38.37,11.72-42.24.77-.5-4.06,38.61-6.81,50.69Z"/>
  <path class="cls-5" d="M225.64,80.12c4.81,47.17,27.15,240.46-4.83,231.96-1.04-.75-148.87,38.38-148.87,38.38-10.96.89-33.36,8.25-37.61-5.72L0,30.79c2.05-6.15,6.98-9.44,13.35-10.08L208.48,0c4.77,1.43,7.85,4.23,9.54,8.99l7.63,71.13Z"/>
  <path class="cls-4" d="M117.97,195.75l6.33,51.83-40.57,4.95-19.09-156.43,64.73-7.9c13.6-1.66,27.99-.8,41.35,9.23,13.63,10.24,17.57,23.09,19.18,36.22,1.52,12.43,1.65,27.17-9.09,40.62-10.74,13.45-25.08,16.87-37.27,18.35l-25.56,3.12ZM113.96,162.92l13.6-1.66c4.22-.52,12.14-1.96,16.52-7.01,4.41-4.82,3.87-11.18,3.41-14.94-.52-4.22-1.67-9.79-6.41-13.5-5.29-4.35-12.88-4.14-18.04-3.51l-13.84,1.69,4.75,38.93Z"/>
  <path class="cls-4" d="M26.43,64.31c8.79-1.56,8.66,8.84,9.27,9.27.44.31,3.51-.3,4.36,0,8.47,3.03,5.61,15.65-2.73,15.81-1.8.03-4.33-2.23-5.72-1.36,2.22,3,4.82,5.39,8.18,7.09l-16.62,1.91,5.18-9.54c-5.76,6.17-16.09,2.22-14.72-6.54.83-5.29,7.94-6.05,8.18-6.54.12-.25-1.23-3.31-.55-5.45.48-1.5,3.58-4.35,5.18-4.63Z"/>
  <path class="cls-4" d="M23.72,49.7l.96,7.86-6.15.75-2.9-23.73,9.82-1.2c2.06-.25,4.25-.12,6.27,1.4,2.07,1.55,2.67,3.5,2.91,5.49.23,1.89.25,4.12-1.38,6.16-1.63,2.04-3.8,2.56-5.65,2.78l-3.88.47ZM23.12,44.72l2.06-.25c.64-.08,1.84-.3,2.51-1.06.67-.73.59-1.7.52-2.27-.08-.64-.25-1.49-.97-2.05-.8-.66-1.95-.63-2.74-.53l-2.1.26.72,5.91Z"/>
  <g>
    <g>
      <path class="cls-3" d="M390.96,168.55c-21.39-14.48-42.88-28.79-64.34-43.17-4.64-3.11-9.37-6.97-13.73-9.89-16.55-11.12-45-33.81-61.47-41.49-5.33-2.49-11.27-2.09-15.7,2.18-7.54,7.27-22.57,33.3-29.44,43.61-17.13,25.68-34.05,51.61-51.05,77.37-25.52,38.67-52.83,78.28-76.9,117.68-3.99,6.53-8.03,13.33-11.71,20.03-2.89,5.28-7.42,10.25-2,16.74,6.64,7.96,43.06,27.89,54.23,35.24,37.63,24.73,75.17,49.68,112.78,74.45,6.31,2.91,11.02,1.94,16.31-2.24l169.54-256.78c12.02-16.4-15.56-26.3-26.52-33.72Z"/>
      <path class="cls-1" d="M229.79,112.41c8.48.96,7.73,9,8.56,9.68.65.53,13.55-1.93,11.92,7.75-1.66,9.89-17.27,9.86-24.85,12.41-1.94-.66-9.6-31.42,4.36-29.83Z"/>
      <path class="cls-1" d="M258.38,395.66c2.72,6.7,6.44,30.48-6.21,28.55-8.73-1.33-7.94-9.37-8.56-9.68-.16-.08-2.45,1.25-3.32,1.07-4.25-.88-9.51-4.87-8.21-9.83,2.25-8.62,19.41-8.51,26.3-10.1Z"/>
    </g>
    <path class="cls-1" d="M244.1,110.07c-.32-.95-.46-1.94-.42-2.97.04-1.03.17-2.06.39-3.08.22-1.02.5-2.04.84-3.04.33-1,.63-1.97.9-2.91l.13-.58c-.25.04-.49.07-.73.09-.23.02-.47,0-.71-.07-.36-.1-.65-.34-.87-.73s-.28-.74-.19-1.08c.23-.82.68-1.48,1.36-1.99.67-.51,1.48-.91,2.42-1.19.94-.28,1.95-.47,3.04-.56,1.09-.09,2.16-.12,3.22-.08,1.05.04,2.05.13,2.97.27.93.14,1.68.29,2.27.46.68.19,1.42.45,2.21.78.79.33,1.49.74,2.12,1.22.62.49,1.11,1.06,1.46,1.73.35.67.4,1.44.15,2.31-.21.76-.58,1.4-1.1,1.92-.52.52-1.11.97-1.77,1.34-.66.37-1.35.7-2.07.97-.72.27-1.39.54-2.02.82.48.29.98.59,1.48.9.5.31.93.67,1.3,1.07.36.4.63.86.79,1.38.16.52.14,1.12-.05,1.79-.23.84-.71,1.56-1.44,2.16s-1.58,1.11-2.58,1.53c-1,.42-2.08.74-3.26.97-1.17.23-2.33.38-3.46.47-1.13.08-2.19.09-3.19.03-.99-.06-1.81-.19-2.46-.37-.28-.08-.62-.19-1.02-.32-.4-.13-.77-.3-1.11-.51-.35-.2-.62-.45-.82-.73-.2-.28-.25-.62-.14-1.02.08-.3.21-.52.38-.67.17-.15.36-.25.57-.31.21-.06.44-.08.69-.07.25.02.48.03.72.06ZM249.62,101.89c.3-.05.72-.12,1.28-.22.56-.1,1.18-.23,1.86-.4.68-.16,1.38-.36,2.1-.57.72-.22,1.39-.45,2-.69.61-.25,1.13-.5,1.55-.77.42-.27.68-.55.76-.85.12-.44.04-.79-.24-1.05-.28-.26-.65-.47-1.09-.63s-.91-.27-1.39-.33c-.48-.06-.85-.11-1.1-.16-.92-.13-1.63-.1-2.13.08-.5.18-.92.51-1.27,1-.35.48-.69,1.11-1.01,1.87-.32.77-.76,1.68-1.32,2.72ZM248.17,110.09c.59.08,1.35.06,2.3-.05.94-.11,1.84-.29,2.7-.55,1.08-.3,1.82-.62,2.21-.96.39-.34.54-.66.45-.95-.09-.29-.37-.55-.83-.76-.46-.21-1.01-.35-1.65-.4-.83-.06-1.66-.08-2.5-.05-.83.02-1.67.08-2.52.16-.12.59-.23,1.18-.32,1.76-.09.59-.03,1.19.16,1.8Z"/>
    <path class="cls-1" d="M189.85,302.52c-1.73-5.13-2.5-10.48-2.28-16.06.21-5.57.92-11.12,2.11-16.65,1.2-5.53,2.7-11,4.51-16.42,1.81-5.42,3.43-10.65,4.85-15.71l.7-3.11c-1.35.2-2.66.36-3.92.47-1.26.11-2.55-.02-3.86-.38-1.96-.55-3.53-1.86-4.71-3.93-1.18-2.07-1.52-4.02-1-5.86,1.24-4.41,3.68-8,7.33-10.75,3.65-2.75,8.01-4.9,13.08-6.44,5.07-1.54,10.56-2.56,16.45-3.05,5.89-.49,11.69-.64,17.39-.44,5.7.2,11.05.69,16.07,1.46,5.01.77,9.1,1.59,12.26,2.48,3.7,1.04,7.69,2.45,11.95,4.22,4.26,1.78,8.08,3.98,11.45,6.61,3.37,2.63,5.99,5.75,7.87,9.35,1.87,3.6,2.14,7.77.81,12.51-1.15,4.09-3.12,7.55-5.92,10.36-2.8,2.82-5.99,5.23-9.57,7.25-3.58,2.02-7.32,3.76-11.21,5.22-3.9,1.46-7.53,2.94-10.9,4.43,2.62,1.55,5.28,3.17,7.98,4.85,2.7,1.69,5.03,3.62,7.01,5.8,1.97,2.18,3.39,4.67,4.25,7.46.86,2.8.78,6.03-.25,9.69-1.27,4.52-3.86,8.41-7.77,11.67-3.91,3.26-8.56,6.02-13.95,8.28-5.39,2.26-11.26,4.02-17.6,5.26-6.34,1.24-12.57,2.08-18.68,2.51-6.11.44-11.85.48-17.22.14-5.37-.35-9.79-1-13.28-1.98-1.53-.43-3.36-1-5.51-1.72-2.15-.72-4.16-1.63-6.02-2.73-1.87-1.11-3.35-2.42-4.44-3.95-1.1-1.53-1.35-3.37-.74-5.52.45-1.62,1.14-2.82,2.07-3.6.93-.79,1.96-1.34,3.11-1.65,1.15-.32,2.38-.43,3.71-.35,1.33.08,2.62.18,3.88.3ZM219.7,258.28c1.59-.25,3.91-.65,6.94-1.19,3.03-.54,6.37-1.26,10.03-2.15,3.66-.89,7.44-1.92,11.35-3.09,3.91-1.17,7.52-2.42,10.83-3.76,3.31-1.34,6.11-2.73,8.4-4.18,2.29-1.45,3.66-2.98,4.11-4.6.66-2.37.23-4.26-1.32-5.68-1.54-1.42-3.51-2.55-5.92-3.4-2.41-.85-4.92-1.44-7.52-1.76-2.61-.32-4.59-.62-5.92-.88-4.98-.7-8.81-.55-11.49.44-2.69.99-4.98,2.78-6.89,5.39-1.91,2.6-3.73,5.98-5.48,10.13-1.75,4.15-4.13,9.06-7.12,14.73ZM211.86,302.59c3.17.43,7.31.34,12.41-.27,5.1-.6,9.96-1.59,14.58-2.97,5.85-1.61,9.84-3.34,11.94-5.19,2.11-1.85,2.91-3.57,2.42-5.16-.5-1.59-1.99-2.97-4.48-4.13-2.49-1.16-5.46-1.88-8.91-2.15-4.49-.33-8.99-.43-13.49-.3-4.5.13-9.05.42-13.64.88-.66,3.18-1.23,6.36-1.71,9.54-.48,3.17-.19,6.42.88,9.74Z"/>
    <path class="cls-1" d="M239.95,428.02c.26.97.33,1.97.22,2.99-.11,1.03-.31,2.04-.6,3.05-.29,1.01-.64,2-1.04,2.97-.4.98-.77,1.92-1.09,2.84l-.17.57c.25-.02.49-.03.73-.04.23,0,.47.04.71.12.36.13.63.39.82.79s.23.76.11,1.09c-.28.8-.78,1.43-1.49,1.89-.71.46-1.54.8-2.5,1.02-.96.22-1.98.34-3.07.36-1.09.02-2.17-.03-3.22-.14-1.05-.11-2.03-.27-2.95-.47-.92-.2-1.66-.41-2.23-.61-.67-.24-1.39-.55-2.15-.93-.76-.38-1.44-.84-2.03-1.36-.59-.53-1.03-1.14-1.34-1.82-.3-.69-.3-1.46,0-2.32.26-.74.67-1.35,1.22-1.84.55-.48,1.17-.89,1.86-1.22.69-.33,1.4-.6,2.13-.82.74-.22,1.43-.45,2.07-.68-.46-.32-.94-.65-1.41-.99-.48-.35-.88-.73-1.22-1.16-.34-.43-.57-.9-.69-1.43-.12-.53-.07-1.12.17-1.78.29-.82.82-1.5,1.58-2.06s1.66-1,2.68-1.35c1.02-.35,2.13-.6,3.31-.75,1.19-.15,2.35-.23,3.48-.23,1.13,0,2.19.06,3.18.19.99.13,1.8.31,2.43.53.28.1.61.23,1,.39.39.16.75.35,1.08.58.33.23.59.49.77.78.18.3.21.64.07,1.03-.1.29-.25.51-.43.64-.18.13-.38.22-.59.27-.22.04-.45.05-.69.02-.24-.03-.48-.07-.71-.1ZM233.88,435.81c-.3.03-.73.07-1.3.13-.57.06-1.19.15-1.88.27-.69.12-1.4.26-2.13.43-.74.17-1.42.35-2.05.56-.63.21-1.16.43-1.6.67-.44.24-.71.5-.82.8-.15.43-.09.78.17,1.07.27.28.62.52,1.05.7s.89.33,1.37.42c.48.09.84.17,1.08.24.91.19,1.62.21,2.13.06.51-.15.95-.45,1.34-.91.38-.46.76-1.06,1.14-1.8.38-.74.87-1.62,1.5-2.63ZM235.88,427.73c-.58-.12-1.34-.15-2.29-.11-.95.05-1.86.17-2.73.37-1.1.22-1.86.49-2.27.81-.41.31-.58.62-.51.92.07.3.33.57.78.82.45.25.99.42,1.62.51.82.12,1.65.19,2.49.22.83.03,1.68.03,2.53,0,.16-.58.31-1.16.43-1.74.13-.58.11-1.18-.04-1.81Z"/>
  </g>
</svg>